<svg xmlns="http://www.w3.org/2000/svg" viewBox="0 0 100 100" width="100" height="100">
  <polygon points="20,6 44,30 14,32" fill="#F0822E"/>
  <polygon points="80,6 56,30 86,32" fill="#F0822E"/>
  <polygon points="25,14 38,28 21,29" fill="#C85A22"/>
  <polygon points="75,14 62,28 79,29" fill="#C85A22"/>
  <ellipse cx="50" cy="46" rx="34" ry="28" fill="#F0822E"/>
  <path d="M22 48 Q26 72 50 82 Q74 72 78 48 Q50 63 22 48 Z" fill="#FBF4EA"/>
  <circle cx="36" cy="44" r="5.5" fill="#3C3C3C"/>
  <circle cx="64" cy="44" r="5.5" fill="#3C3C3C"/>
  <circle cx="38" cy="42" r="1.8" fill="#fff"/>
  <circle cx="66" cy="42" r="1.8" fill="#fff"/>
  <ellipse cx="50" cy="66" rx="5" ry="4" fill="#3C3C3C"/>
  <path d="M50 70 L50 74 M50 74 q-6 4 -10 1 M50 74 q6 4 10 1" stroke="#6B4A33" stroke-width="2.5" fill="none" stroke-linecap="round" stroke-linejoin="round"/>
</svg>
